<svg width="539" height="30" viewBox="0 0 539 30" fill="none" xmlns="http://www.w3.org/2000/svg">
<path d="M0 0.292908H14.2244V6.09834H5.63546V12.0433H14.2045L14.2139 17.8388H5.63735L5.62727 23.8616H14.2244V29.6662H0V0.292908Z" fill="black"/>
<path d="M17.0684 0.292908H31.2928V6.09834H22.7049V12.0433H31.2731L31.2825 17.8388H22.7062L22.6967 23.8616H31.2932V29.6662H17.0684V0.292908Z" fill="black"/>
<path d="M48.373 0.292908H34.1484V6.09834H42.7363V12.0433H34.1673L34.1591 17.8388H42.7357L42.7451 23.8616H34.1484V29.6662H48.373V0.292908Z" fill="black"/>
<path d="M72.3865 18.0587C72.9153 18.0587 73.2407 18.3939 73.2407 18.9385V23.7989C73.2407 27.9888 71.0443 30 66.7328 30H66.6515C62.34 30 60.1436 28.0307 60.1436 23.7989V6.20112C60.1436 2.17877 62.34 0 66.6515 0H66.7328C71.0443 0 73.2407 2.17877 73.2407 6.20112V10.3492C73.2407 10.8939 72.9153 11.229 72.3865 11.229H71.8578C71.329 11.229 71.0443 10.8939 71.0443 10.3492V6.95531C71.0443 3.51955 69.8647 2.09497 66.6921 2.09497C63.5196 2.09497 62.34 3.51955 62.34 6.95531V23.0447C62.34 26.4804 63.5196 27.905 66.6921 27.905C69.8647 27.905 71.0443 26.4804 71.0443 23.0447V18.9385C71.0443 18.3939 71.329 18.0587 71.8578 18.0587H72.3865Z" fill="black"/>
<path d="M88.9565 27.5698C89.4853 27.5698 89.8107 27.8631 89.8107 28.4078V28.8268C89.8107 29.3715 89.4853 29.6648 88.9565 29.6648H79.9675C79.4387 29.6648 79.1134 29.3715 79.1134 28.8268V1.17318C79.1134 0.628491 79.4387 0.335194 79.9675 0.335194H80.4963C81.025 0.335194 81.3098 0.628491 81.3098 1.17318V27.5698H88.9565Z" fill="black"/>
<path d="M96.4663 28.8268C96.4663 29.3715 96.1816 29.6648 95.6528 29.6648H95.1241C94.5953 29.6648 94.2699 29.3715 94.2699 28.8268V1.17318C94.2699 0.628491 94.5953 0.335194 95.1241 0.335194H95.6528C96.1816 0.335194 96.4663 0.628491 96.4663 1.17318V28.8268Z" fill="black"/>
<path d="M119.501 6.07542L113.115 24.0084C112.952 24.4693 112.667 24.7207 112.261 24.7207C111.813 24.7207 111.528 24.4693 111.366 24.0084L104.939 6.07542V28.8268C104.939 29.3715 104.655 29.6648 104.126 29.6648H103.719C103.19 29.6648 102.865 29.3715 102.865 28.8268V1.17318C102.865 0.628491 103.19 0.335194 103.719 0.335194H104.329C104.777 0.335194 105.143 0.586592 105.265 1.04749L112.179 20.6564L119.175 1.04749C119.338 0.586592 119.704 0.335194 120.151 0.335194H120.843C121.372 0.335194 121.697 0.628491 121.697 1.17318V28.8268C121.697 29.3715 121.372 29.6648 120.843 29.6648H120.355C119.826 29.6648 119.501 29.3715 119.501 28.8268V6.07542Z" fill="black"/>
<path d="M141.25 28.7011C141.372 29.3296 141.088 29.6648 140.518 29.6648H139.908C139.42 29.6648 139.135 29.4553 139.013 28.9106L137.59 22.1229H129.902L128.478 28.9106C128.397 29.4553 128.072 29.6648 127.584 29.6648H127.096C126.526 29.6648 126.282 29.3296 126.363 28.7011L132.383 1.08938C132.465 0.544691 132.79 0.335194 133.278 0.335194H134.254C134.742 0.335194 135.068 0.544691 135.149 1.08938L141.25 28.7011ZM130.35 20.0698H137.142L133.766 3.89665L130.35 20.0698Z" fill="black"/>
<path d="M154.098 0.335194C154.627 0.335194 154.953 0.628491 154.953 1.17318V1.55028C154.953 2.09497 154.627 2.43017 154.098 2.43017H149.584V28.8268C149.584 29.3715 149.258 29.6648 148.729 29.6648H148.201C147.672 29.6648 147.387 29.3715 147.387 28.8268V2.43017H142.872C142.344 2.43017 142.018 2.09497 142.018 1.55028V1.17318C142.018 0.628491 142.344 0.335194 142.872 0.335194H154.098Z" fill="black"/>
<path d="M170.315 28.8268C170.315 29.3715 169.99 29.6648 169.461 29.6648H159.862C159.333 29.6648 159.008 29.3715 159.008 28.8268V1.17318C159.008 0.628491 159.333 0.335194 159.862 0.335194H169.339C169.868 0.335194 170.193 0.628491 170.193 1.17318V1.55028C170.193 2.09497 169.868 2.43017 169.339 2.43017H161.204V13.743H168.078C168.607 13.743 168.932 14.0782 168.932 14.6229V14.9581C168.932 15.5028 168.607 15.838 168.078 15.838H161.204V27.5698H169.461C169.99 27.5698 170.315 27.905 170.315 28.4497V28.8268Z" fill="black"/>
<path d="M196.792 15.1257C197.321 15.1257 197.646 15.4609 197.646 15.9637V23.7989C197.646 27.9888 195.45 30 191.138 30H190.813C186.501 30 184.305 28.0307 184.305 23.7989V6.20112C184.305 2.17877 186.501 0 190.813 0H191.138C195.45 0 197.646 2.17877 197.646 6.20112V9.17598C197.646 9.72067 197.321 10.0559 196.792 10.0559H196.263C195.734 10.0559 195.45 9.72067 195.45 9.17598V6.95531C195.45 3.47765 194.189 2.09497 190.975 2.09497C187.762 2.09497 186.501 3.47765 186.501 6.95531V23.0447C186.501 26.5223 187.762 27.905 190.975 27.905C194.189 27.905 195.45 26.5223 195.45 23.0447V17.1788H191.626C191.097 17.1788 190.813 16.8855 190.813 16.3408V15.9637C190.813 15.4609 191.097 15.1257 191.626 15.1257H196.792Z" fill="black"/>
<path d="M216.736 28.7011C216.858 29.3296 216.573 29.6648 216.004 29.6648H215.394C214.905 29.6648 214.621 29.4553 214.499 28.9106L213.075 22.1229H205.388L203.964 28.9106C203.883 29.4553 203.557 29.6648 203.069 29.6648H202.581C202.012 29.6648 201.768 29.3296 201.849 28.7011L207.869 1.08938C207.95 0.544691 208.276 0.335194 208.764 0.335194H209.74C210.228 0.335194 210.553 0.544691 210.635 1.08938L216.736 28.7011ZM205.835 20.0698H212.628L209.252 3.89665L205.835 20.0698Z" fill="black"/>
<path d="M231.331 27.6117C231.86 27.6117 232.185 27.9469 232.185 28.4916V28.8268C232.185 29.3715 231.86 29.6648 231.331 29.6648H220.715C220.186 29.6648 219.861 29.3715 219.861 28.8268V28.4916C219.861 28.1145 219.901 27.8212 220.064 27.4441L229.501 2.38827H221.203C220.674 2.38827 220.349 2.05307 220.349 1.50838V1.17318C220.349 0.628491 220.674 0.335194 221.203 0.335194H231.046C231.575 0.335194 231.9 0.628491 231.9 1.17318V1.50838C231.9 1.88547 231.819 2.17877 231.697 2.55587L222.261 27.6117H231.331Z" fill="black"/>
<path d="M248.145 28.8268C248.145 29.3715 247.819 29.6648 247.29 29.6648H237.691C237.163 29.6648 236.837 29.3715 236.837 28.8268V1.17318C236.837 0.628491 237.163 0.335194 237.691 0.335194H247.168C247.697 0.335194 248.023 0.628491 248.023 1.17318V1.55028C248.023 2.09497 247.697 2.43017 247.168 2.43017H239.034V13.743H245.907C246.436 13.743 246.762 14.0782 246.762 14.6229V14.9581C246.762 15.5028 246.436 15.838 245.907 15.838H239.034V27.5698H247.29C247.819 27.5698 248.145 27.905 248.145 28.4497V28.8268Z" fill="black"/>
<path d="M262.908 0.335194C263.437 0.335194 263.763 0.628491 263.763 1.17318V1.55028C263.763 2.09497 263.437 2.43017 262.908 2.43017H258.394V28.8268C258.394 29.3715 258.068 29.6648 257.539 29.6648H257.011C256.482 29.6648 256.197 29.3715 256.197 28.8268V2.43017H251.682C251.154 2.43017 250.828 2.09497 250.828 1.55028V1.17318C250.828 0.628491 251.154 0.335194 251.682 0.335194H262.908Z" fill="black"/>
<path d="M277.783 0.335194C278.312 0.335194 278.637 0.628491 278.637 1.17318V1.55028C278.637 2.09497 278.312 2.43017 277.783 2.43017H273.268V28.8268C273.268 29.3715 272.943 29.6648 272.414 29.6648H271.885C271.357 29.6648 271.072 29.3715 271.072 28.8268V2.43017H266.557C266.028 2.43017 265.703 2.09497 265.703 1.55028V1.17318C265.703 0.628491 266.028 0.335194 266.557 0.335194H277.783Z" fill="black"/>
<path d="M294 28.8268C294 29.3715 293.675 29.6648 293.146 29.6648H283.547C283.018 29.6648 282.693 29.3715 282.693 28.8268V1.17318C282.693 0.628491 283.018 0.335194 283.547 0.335194H293.024C293.553 0.335194 293.878 0.628491 293.878 1.17318V1.55028C293.878 2.09497 293.553 2.43017 293.024 2.43017H284.889V13.743H291.763C292.292 13.743 292.617 14.0782 292.617 14.6229V14.9581C292.617 15.5028 292.292 15.838 291.763 15.838H284.889V27.5698H293.146C293.675 27.5698 294 27.905 294 28.4497V28.8268Z" fill="black"/>
<line x1="314.5" y1="2.18557e-08" x2="314.5" y2="30" stroke="black" stroke-opacity="0.3"/>
<path d="M336.97 11.5875V1.98748H334V0.412482H341.65V1.98748H338.725V11.5875H336.97Z" fill="black"/>
<path d="M342.808 11.5875V0.232483H344.503V5.06248L344.233 4.85248C344.433 4.34248 344.753 3.95748 345.193 3.69748C345.633 3.42748 346.143 3.29248 346.723 3.29248C347.323 3.29248 347.853 3.42248 348.313 3.68248C348.773 3.94248 349.133 4.30248 349.393 4.76248C349.653 5.22248 349.783 5.74748 349.783 6.33748V11.5875H348.103V6.80248C348.103 6.39248 348.023 6.04748 347.863 5.76748C347.713 5.47748 347.503 5.25748 347.233 5.10748C346.963 4.94748 346.653 4.86748 346.303 4.86748C345.963 4.86748 345.653 4.94748 345.373 5.10748C345.103 5.25748 344.888 5.47748 344.728 5.76748C344.578 6.05748 344.503 6.40248 344.503 6.80248V11.5875H342.808Z" fill="black"/>
<path d="M355.407 11.7675C354.597 11.7675 353.877 11.5825 353.247 11.2125C352.627 10.8325 352.142 10.3225 351.792 9.68248C351.442 9.03248 351.267 8.30748 351.267 7.50748C351.267 6.68748 351.442 5.96248 351.792 5.33248C352.152 4.70248 352.632 4.20748 353.232 3.84748C353.832 3.47748 354.512 3.29248 355.272 3.29248C355.882 3.29248 356.427 3.39748 356.907 3.60748C357.387 3.81748 357.792 4.10748 358.122 4.47748C358.452 4.83748 358.702 5.25248 358.872 5.72248C359.052 6.19248 359.142 6.69248 359.142 7.22248C359.142 7.35248 359.137 7.48748 359.127 7.62748C359.117 7.76748 359.097 7.89748 359.067 8.01748H352.602V6.66748H358.107L357.297 7.28248C357.397 6.79248 357.362 6.35748 357.192 5.97748C357.032 5.58748 356.782 5.28248 356.442 5.06248C356.112 4.83248 355.722 4.71748 355.272 4.71748C354.822 4.71748 354.422 4.83248 354.072 5.06248C353.722 5.28248 353.452 5.60248 353.262 6.02248C353.072 6.43248 352.997 6.93248 353.037 7.52248C352.987 8.07248 353.062 8.55248 353.262 8.96248C353.472 9.37248 353.762 9.69248 354.132 9.92248C354.512 10.1525 354.942 10.2675 355.422 10.2675C355.912 10.2675 356.327 10.1575 356.667 9.93748C357.017 9.71748 357.292 9.43248 357.492 9.08248L358.872 9.75748C358.712 10.1375 358.462 10.4825 358.122 10.7925C357.792 11.0925 357.392 11.3325 356.922 11.5125C356.462 11.6825 355.957 11.7675 355.407 11.7675Z" fill="black"/>
<path d="M363.584 11.5875V0.412482H370.949V1.98748H365.354V5.19748H370.649V6.77248H365.354V10.0125H370.949V11.5875H363.584Z" fill="black"/>
<path d="M375.323 11.7675C374.713 11.7675 374.178 11.6325 373.718 11.3625C373.258 11.0825 372.898 10.6975 372.638 10.2075C372.388 9.70748 372.263 9.13248 372.263 8.48248V3.47248H373.958V8.33248C373.958 8.70248 374.033 9.02748 374.183 9.30748C374.333 9.58748 374.543 9.80748 374.813 9.96748C375.083 10.1175 375.393 10.1925 375.743 10.1925C376.103 10.1925 376.418 10.1125 376.688 9.95248C376.958 9.79248 377.168 9.56748 377.318 9.27748C377.478 8.98748 377.558 8.64748 377.558 8.25748V3.47248H379.238V11.5875H377.633V9.99748L377.813 10.2075C377.623 10.7075 377.308 11.0925 376.868 11.3625C376.428 11.6325 375.913 11.7675 375.323 11.7675Z" fill="black"/>
<path d="M381.217 11.5875V3.47248H382.837V5.10748L382.687 4.86748C382.867 4.33748 383.157 3.95748 383.557 3.72748C383.957 3.48748 384.437 3.36748 384.997 3.36748H385.492V4.91248H384.787C384.227 4.91248 383.772 5.08748 383.422 5.43748C383.082 5.77748 382.912 6.26748 382.912 6.90748V11.5875H381.217Z" fill="black"/>
<path d="M390.566 11.7675C389.786 11.7675 389.071 11.5825 388.421 11.2125C387.781 10.8425 387.271 10.3375 386.891 9.69748C386.511 9.05748 386.321 8.33248 386.321 7.52248C386.321 6.70248 386.511 5.97748 386.891 5.34748C387.271 4.70748 387.781 4.20748 388.421 3.84748C389.061 3.47748 389.776 3.29248 390.566 3.29248C391.366 3.29248 392.081 3.47748 392.711 3.84748C393.351 4.20748 393.856 4.70748 394.226 5.34748C394.606 5.97748 394.796 6.70248 394.796 7.52248C394.796 8.34248 394.606 9.07248 394.226 9.71248C393.846 10.3525 393.336 10.8575 392.696 11.2275C392.056 11.5875 391.346 11.7675 390.566 11.7675ZM390.566 10.1925C391.046 10.1925 391.471 10.0775 391.841 9.84748C392.211 9.61748 392.501 9.30248 392.711 8.90248C392.931 8.49248 393.041 8.03248 393.041 7.52248C393.041 7.01248 392.931 6.55748 392.711 6.15748C392.501 5.75748 392.211 5.44248 391.841 5.21248C391.471 4.98248 391.046 4.86748 390.566 4.86748C390.096 4.86748 389.671 4.98248 389.291 5.21248C388.921 5.44248 388.626 5.75748 388.406 6.15748C388.196 6.55748 388.091 7.01248 388.091 7.52248C388.091 8.03248 388.196 8.49248 388.406 8.90248C388.626 9.30248 388.921 9.61748 389.291 9.84748C389.671 10.0775 390.096 10.1925 390.566 10.1925Z" fill="black"/>
<path d="M396.451 14.5875V3.47248H398.071V5.15248L397.876 4.76248C398.176 4.30248 398.576 3.94248 399.076 3.68248C399.576 3.42248 400.146 3.29248 400.786 3.29248C401.556 3.29248 402.246 3.47748 402.856 3.84748C403.476 4.21748 403.961 4.72248 404.311 5.36248C404.671 6.00248 404.851 6.72248 404.851 7.52248C404.851 8.32248 404.671 9.04248 404.311 9.68248C403.961 10.3225 403.481 10.8325 402.871 11.2125C402.261 11.5825 401.566 11.7675 400.786 11.7675C400.156 11.7675 399.581 11.6375 399.061 11.3775C398.551 11.1175 398.156 10.7425 397.876 10.2525L398.146 9.93748V14.5875H396.451ZM400.621 10.1925C401.101 10.1925 401.526 10.0775 401.896 9.84748C402.266 9.61748 402.556 9.30248 402.766 8.90248C402.986 8.49248 403.096 8.03248 403.096 7.52248C403.096 7.01248 402.986 6.55748 402.766 6.15748C402.556 5.75748 402.266 5.44248 401.896 5.21248C401.526 4.98248 401.101 4.86748 400.621 4.86748C400.151 4.86748 399.726 4.98248 399.346 5.21248C398.976 5.44248 398.681 5.75748 398.461 6.15748C398.251 6.55748 398.146 7.01248 398.146 7.52248C398.146 8.03248 398.251 8.49248 398.461 8.90248C398.681 9.30248 398.976 9.61748 399.346 9.84748C399.726 10.0775 400.151 10.1925 400.621 10.1925Z" fill="black"/>
<path d="M410.31 11.7675C409.5 11.7675 408.78 11.5825 408.15 11.2125C407.53 10.8325 407.045 10.3225 406.695 9.68248C406.345 9.03248 406.17 8.30748 406.17 7.50748C406.17 6.68748 406.345 5.96248 406.695 5.33248C407.055 4.70248 407.535 4.20748 408.135 3.84748C408.735 3.47748 409.415 3.29248 410.175 3.29248C410.785 3.29248 411.33 3.39748 411.81 3.60748C412.29 3.81748 412.695 4.10748 413.025 4.47748C413.355 4.83748 413.605 5.25248 413.775 5.72248C413.955 6.19248 414.045 6.69248 414.045 7.22248C414.045 7.35248 414.04 7.48748 414.03 7.62748C414.02 7.76748 414 7.89748 413.97 8.01748H407.505V6.66748H413.01L412.2 7.28248C412.3 6.79248 412.265 6.35748 412.095 5.97748C411.935 5.58748 411.685 5.28248 411.345 5.06248C411.015 4.83248 410.625 4.71748 410.175 4.71748C409.725 4.71748 409.325 4.83248 408.975 5.06248C408.625 5.28248 408.355 5.60248 408.165 6.02248C407.975 6.43248 407.9 6.93248 407.94 7.52248C407.89 8.07248 407.965 8.55248 408.165 8.96248C408.375 9.37248 408.665 9.69248 409.035 9.92248C409.415 10.1525 409.845 10.2675 410.325 10.2675C410.815 10.2675 411.23 10.1575 411.57 9.93748C411.92 9.71748 412.195 9.43248 412.395 9.08248L413.775 9.75748C413.615 10.1375 413.365 10.4825 413.025 10.7925C412.695 11.0925 412.295 11.3325 411.825 11.5125C411.365 11.6825 410.86 11.7675 410.31 11.7675Z" fill="black"/>
<path d="M418.056 11.7675C417.506 11.7675 417.021 11.6725 416.601 11.4825C416.191 11.2825 415.871 11.0125 415.641 10.6725C415.411 10.3225 415.296 9.91248 415.296 9.44248C415.296 9.00248 415.391 8.60748 415.581 8.25748C415.781 7.90748 416.086 7.61248 416.496 7.37248C416.906 7.13248 417.421 6.96248 418.041 6.86248L420.861 6.39748V7.73248L418.371 8.16748C417.921 8.24748 417.591 8.39248 417.381 8.60248C417.171 8.80248 417.066 9.06248 417.066 9.38248C417.066 9.69248 417.181 9.94748 417.411 10.1475C417.651 10.3375 417.956 10.4325 418.326 10.4325C418.786 10.4325 419.186 10.3325 419.526 10.1325C419.876 9.93248 420.146 9.66748 420.336 9.33748C420.526 8.99748 420.621 8.62248 420.621 8.21248V6.12748C420.621 5.72748 420.471 5.40248 420.171 5.15248C419.881 4.89248 419.491 4.76248 419.001 4.76248C418.551 4.76248 418.156 4.88248 417.816 5.12248C417.486 5.35248 417.241 5.65248 417.081 6.02248L415.671 5.31748C415.821 4.91748 416.066 4.56748 416.406 4.26748C416.746 3.95748 417.141 3.71748 417.591 3.54748C418.051 3.37748 418.536 3.29248 419.046 3.29248C419.686 3.29248 420.251 3.41248 420.741 3.65248C421.241 3.89248 421.626 4.22748 421.896 4.65748C422.176 5.07748 422.316 5.56748 422.316 6.12748V11.5875H420.696V10.1175L421.041 10.1625C420.851 10.4925 420.606 10.7775 420.306 11.0175C420.016 11.2575 419.681 11.4425 419.301 11.5725C418.931 11.7025 418.516 11.7675 418.056 11.7675Z" fill="black"/>
<path d="M424.298 11.5875V3.47248H425.918V5.06248L425.723 4.85248C425.923 4.34248 426.243 3.95748 426.683 3.69748C427.123 3.42748 427.633 3.29248 428.213 3.29248C428.813 3.29248 429.343 3.42248 429.803 3.68248C430.263 3.94248 430.623 4.30248 430.883 4.76248C431.143 5.22248 431.273 5.75248 431.273 6.35248V11.5875H429.593V6.80248C429.593 6.39248 429.518 6.04748 429.368 5.76748C429.218 5.47748 429.003 5.25748 428.723 5.10748C428.453 4.94748 428.143 4.86748 427.793 4.86748C427.443 4.86748 427.128 4.94748 426.848 5.10748C426.578 5.25748 426.368 5.47748 426.218 5.76748C426.068 6.05748 425.993 6.40248 425.993 6.80248V11.5875H424.298Z" fill="black"/>
<path d="M441.079 11.7675C440.289 11.7675 439.554 11.6225 438.874 11.3325C438.204 11.0425 437.619 10.6425 437.119 10.1325C436.629 9.61248 436.244 9.00248 435.964 8.30248C435.684 7.60248 435.544 6.83248 435.544 5.99248C435.544 5.16248 435.679 4.39748 435.949 3.69748C436.229 2.98748 436.619 2.37748 437.119 1.86748C437.619 1.34748 438.204 0.947483 438.874 0.667483C439.544 0.377483 440.279 0.232483 441.079 0.232483C441.869 0.232483 442.574 0.367483 443.194 0.637483C443.824 0.907483 444.354 1.26248 444.784 1.70248C445.214 2.13248 445.524 2.60248 445.714 3.11248L444.124 3.86248C443.884 3.26248 443.499 2.77748 442.969 2.40748C442.449 2.02748 441.819 1.83748 441.079 1.83748C440.339 1.83748 439.684 2.01248 439.114 2.36248C438.544 2.71248 438.099 3.19748 437.779 3.81748C437.469 4.43748 437.314 5.16248 437.314 5.99248C437.314 6.82248 437.469 7.55248 437.779 8.18248C438.099 8.80248 438.544 9.28748 439.114 9.63748C439.684 9.97748 440.339 10.1475 441.079 10.1475C441.819 10.1475 442.449 9.96248 442.969 9.59248C443.499 9.22248 443.884 8.73748 444.124 8.13748L445.714 8.88748C445.524 9.38748 445.214 9.85748 444.784 10.2975C444.354 10.7375 443.824 11.0925 443.194 11.3625C442.574 11.6325 441.869 11.7675 441.079 11.7675Z" fill="black"/>
<path d="M447.369 11.5875V0.232483H449.064V11.5875H447.369Z" fill="black"/>
<path d="M451.046 11.5875V3.47248H452.741V11.5875H451.046ZM451.046 2.36248V0.412482H452.741V2.36248H451.046Z" fill="black"/>
<path d="M454.722 11.5875V3.47248H456.342V5.22748L456.132 4.95748C456.302 4.40748 456.612 3.99248 457.062 3.71248C457.512 3.43248 458.027 3.29248 458.607 3.29248C459.257 3.29248 459.832 3.46748 460.332 3.81748C460.842 4.15748 461.182 4.61248 461.352 5.18248L460.872 5.22748C461.112 4.57748 461.477 4.09248 461.967 3.77248C462.467 3.45248 463.037 3.29248 463.677 3.29248C464.237 3.29248 464.742 3.42248 465.192 3.68248C465.652 3.94248 466.017 4.30248 466.287 4.76248C466.557 5.22248 466.692 5.74748 466.692 6.33748V11.5875H464.997V6.80248C464.997 6.39248 464.922 6.04748 464.772 5.76748C464.632 5.47748 464.432 5.25748 464.172 5.10748C463.922 4.94748 463.627 4.86748 463.287 4.86748C462.947 4.86748 462.647 4.94748 462.387 5.10748C462.127 5.25748 461.922 5.47748 461.772 5.76748C461.622 6.05748 461.547 6.40248 461.547 6.80248V11.5875H459.867V6.80248C459.867 6.39248 459.792 6.04748 459.642 5.76748C459.502 5.47748 459.302 5.25748 459.042 5.10748C458.792 4.94748 458.492 4.86748 458.142 4.86748C457.802 4.86748 457.502 4.94748 457.242 5.10748C456.982 5.25748 456.777 5.47748 456.627 5.76748C456.487 6.05748 456.417 6.40248 456.417 6.80248V11.5875H454.722Z" fill="black"/>
<path d="M470.937 11.7675C470.387 11.7675 469.902 11.6725 469.482 11.4825C469.072 11.2825 468.752 11.0125 468.522 10.6725C468.292 10.3225 468.177 9.91248 468.177 9.44248C468.177 9.00248 468.272 8.60748 468.462 8.25748C468.662 7.90748 468.967 7.61248 469.377 7.37248C469.787 7.13248 470.302 6.96248 470.922 6.86248L473.742 6.39748V7.73248L471.252 8.16748C470.802 8.24748 470.472 8.39248 470.262 8.60248C470.052 8.80248 469.947 9.06248 469.947 9.38248C469.947 9.69248 470.062 9.94748 470.292 10.1475C470.532 10.3375 470.837 10.4325 471.207 10.4325C471.667 10.4325 472.067 10.3325 472.407 10.1325C472.757 9.93248 473.027 9.66748 473.217 9.33748C473.407 8.99748 473.502 8.62248 473.502 8.21248V6.12748C473.502 5.72748 473.352 5.40248 473.052 5.15248C472.762 4.89248 472.372 4.76248 471.882 4.76248C471.432 4.76248 471.037 4.88248 470.697 5.12248C470.367 5.35248 470.122 5.65248 469.962 6.02248L468.552 5.31748C468.702 4.91748 468.947 4.56748 469.287 4.26748C469.627 3.95748 470.022 3.71748 470.472 3.54748C470.932 3.37748 471.417 3.29248 471.927 3.29248C472.567 3.29248 473.132 3.41248 473.622 3.65248C474.122 3.89248 474.507 4.22748 474.777 4.65748C475.057 5.07748 475.197 5.56748 475.197 6.12748V11.5875H473.577V10.1175L473.922 10.1625C473.732 10.4925 473.487 10.7775 473.187 11.0175C472.897 11.2575 472.562 11.4425 472.182 11.5725C471.812 11.7025 471.397 11.7675 470.937 11.7675Z" fill="black"/>
<path d="M480.542 11.6775C479.692 11.6775 479.032 11.4375 478.562 10.9575C478.092 10.4775 477.857 9.80248 477.857 8.93248V5.00248H476.432V3.47248H476.657C477.037 3.47248 477.332 3.36248 477.542 3.14248C477.752 2.92248 477.857 2.62248 477.857 2.24248V1.61248H479.552V3.47248H481.397V5.00248H479.552V8.85748C479.552 9.13748 479.597 9.37748 479.687 9.57748C479.777 9.76748 479.922 9.91748 480.122 10.0275C480.322 10.1275 480.582 10.1775 480.902 10.1775C480.982 10.1775 481.072 10.1725 481.172 10.1625C481.272 10.1525 481.367 10.1425 481.457 10.1325V11.5875C481.317 11.6075 481.162 11.6275 480.992 11.6475C480.822 11.6675 480.672 11.6775 480.542 11.6775Z" fill="black"/>
<path d="M486.775 11.7675C485.965 11.7675 485.245 11.5825 484.615 11.2125C483.995 10.8325 483.51 10.3225 483.16 9.68248C482.81 9.03248 482.635 8.30748 482.635 7.50748C482.635 6.68748 482.81 5.96248 483.16 5.33248C483.52 4.70248 484 4.20748 484.6 3.84748C485.2 3.47748 485.88 3.29248 486.64 3.29248C487.25 3.29248 487.795 3.39748 488.275 3.60748C488.755 3.81748 489.16 4.10748 489.49 4.47748C489.82 4.83748 490.07 5.25248 490.24 5.72248C490.42 6.19248 490.51 6.69248 490.51 7.22248C490.51 7.35248 490.505 7.48748 490.495 7.62748C490.485 7.76748 490.465 7.89748 490.435 8.01748H483.97V6.66748H489.475L488.665 7.28248C488.765 6.79248 488.73 6.35748 488.56 5.97748C488.4 5.58748 488.15 5.28248 487.81 5.06248C487.48 4.83248 487.09 4.71748 486.64 4.71748C486.19 4.71748 485.79 4.83248 485.44 5.06248C485.09 5.28248 484.82 5.60248 484.63 6.02248C484.44 6.43248 484.365 6.93248 484.405 7.52248C484.355 8.07248 484.43 8.55248 484.63 8.96248C484.84 9.37248 485.13 9.69248 485.5 9.92248C485.88 10.1525 486.31 10.2675 486.79 10.2675C487.28 10.2675 487.695 10.1575 488.035 9.93748C488.385 9.71748 488.66 9.43248 488.86 9.08248L490.24 9.75748C490.08 10.1375 489.83 10.4825 489.49 10.7925C489.16 11.0925 488.76 11.3325 488.29 11.5125C487.83 11.6825 487.325 11.7675 486.775 11.7675Z" fill="black"/>
<path d="M494.951 11.5875V0.412482H496.721V11.5875H494.951Z" fill="black"/>
<path d="M498.873 11.5875V3.47248H500.493V5.06248L500.298 4.85248C500.498 4.34248 500.818 3.95748 501.258 3.69748C501.698 3.42748 502.208 3.29248 502.788 3.29248C503.388 3.29248 503.918 3.42248 504.378 3.68248C504.838 3.94248 505.198 4.30248 505.458 4.76248C505.718 5.22248 505.848 5.75248 505.848 6.35248V11.5875H504.168V6.80248C504.168 6.39248 504.093 6.04748 503.943 5.76748C503.793 5.47748 503.578 5.25748 503.298 5.10748C503.028 4.94748 502.718 4.86748 502.368 4.86748C502.018 4.86748 501.703 4.94748 501.423 5.10748C501.153 5.25748 500.943 5.47748 500.793 5.76748C500.643 6.05748 500.568 6.40248 500.568 6.80248V11.5875H498.873Z" fill="black"/>
<path d="M511.412 11.7675C510.632 11.7675 509.932 11.5825 509.312 11.2125C508.702 10.8325 508.217 10.3225 507.857 9.68248C507.507 9.04248 507.332 8.32248 507.332 7.52248C507.332 6.72248 507.512 6.00248 507.872 5.36248C508.232 4.72248 508.717 4.21748 509.327 3.84748C509.937 3.47748 510.627 3.29248 511.397 3.29248C512.047 3.29248 512.622 3.42248 513.122 3.68248C513.622 3.94248 514.017 4.30248 514.307 4.76248L514.052 5.15248V0.232483H515.732V11.5875H514.127V9.93748L514.322 10.2525C514.042 10.7425 513.642 11.1175 513.122 11.3775C512.602 11.6375 512.032 11.7675 511.412 11.7675ZM511.577 10.1925C512.047 10.1925 512.467 10.0775 512.837 9.84748C513.217 9.61748 513.512 9.30248 513.722 8.90248C513.942 8.49248 514.052 8.03248 514.052 7.52248C514.052 7.01248 513.942 6.55748 513.722 6.15748C513.512 5.75748 513.217 5.44248 512.837 5.21248C512.467 4.98248 512.047 4.86748 511.577 4.86748C511.107 4.86748 510.682 4.98248 510.302 5.21248C509.922 5.44248 509.627 5.75748 509.417 6.15748C509.207 6.55748 509.102 7.01248 509.102 7.52248C509.102 8.03248 509.207 8.49248 509.417 8.90248C509.627 9.30248 509.917 9.61748 510.287 9.84748C510.667 10.0775 511.097 10.1925 511.577 10.1925Z" fill="black"/>
<path d="M521.521 11.7675C520.711 11.7675 519.991 11.5825 519.361 11.2125C518.741 10.8325 518.256 10.3225 517.906 9.68248C517.556 9.03248 517.381 8.30748 517.381 7.50748C517.381 6.68748 517.556 5.96248 517.906 5.33248C518.266 4.70248 518.746 4.20748 519.346 3.84748C519.946 3.47748 520.626 3.29248 521.386 3.29248C521.996 3.29248 522.541 3.39748 523.021 3.60748C523.501 3.81748 523.906 4.10748 524.236 4.47748C524.566 4.83748 524.816 5.25248 524.986 5.72248C525.166 6.19248 525.256 6.69248 525.256 7.22248C525.256 7.35248 525.251 7.48748 525.241 7.62748C525.231 7.76748 525.211 7.89748 525.181 8.01748H518.716V6.66748H524.221L523.411 7.28248C523.511 6.79248 523.476 6.35748 523.306 5.97748C523.146 5.58748 522.896 5.28248 522.556 5.06248C522.226 4.83248 521.836 4.71748 521.386 4.71748C520.936 4.71748 520.536 4.83248 520.186 5.06248C519.836 5.28248 519.566 5.60248 519.376 6.02248C519.186 6.43248 519.111 6.93248 519.151 7.52248C519.101 8.07248 519.176 8.55248 519.376 8.96248C519.586 9.37248 519.876 9.69248 520.246 9.92248C520.626 10.1525 521.056 10.2675 521.536 10.2675C522.026 10.2675 522.441 10.1575 522.781 9.93748C523.131 9.71748 523.406 9.43248 523.606 9.08248L524.986 9.75748C524.826 10.1375 524.576 10.4825 524.236 10.7925C523.906 11.0925 523.506 11.3325 523.036 11.5125C522.576 11.6825 522.071 11.7675 521.521 11.7675Z" fill="black"/>
<path d="M525.953 11.5875L528.788 7.52248L525.953 3.47248H527.948L530.273 6.86248H529.313L531.638 3.47248H533.633L530.783 7.52248L533.618 11.5875H531.623L529.328 8.18248H530.258L527.948 11.5875H525.953Z" fill="black"/>
<path d="M338.68 29.7675C337.87 29.7675 337.15 29.5825 336.52 29.2125C335.9 28.8325 335.405 28.3225 335.035 27.6825C334.675 27.0425 334.495 26.3175 334.495 25.5075C334.495 24.7075 334.675 23.9875 335.035 23.3475C335.395 22.7075 335.89 22.2075 336.52 21.8475C337.15 21.4775 337.87 21.2925 338.68 21.2925C339.23 21.2925 339.745 21.3925 340.225 21.5925C340.705 21.7825 341.12 22.0475 341.47 22.3875C341.83 22.7275 342.095 23.1225 342.265 23.5725L340.78 24.2625C340.61 23.8425 340.335 23.5075 339.955 23.2575C339.585 22.9975 339.16 22.8675 338.68 22.8675C338.22 22.8675 337.805 22.9825 337.435 23.2125C337.075 23.4325 336.79 23.7475 336.58 24.1575C336.37 24.5575 336.265 25.0125 336.265 25.5225C336.265 26.0325 336.37 26.4925 336.58 26.9025C336.79 27.3025 337.075 27.6175 337.435 27.8475C337.805 28.0775 338.22 28.1925 338.68 28.1925C339.17 28.1925 339.595 28.0675 339.955 27.8175C340.325 27.5575 340.6 27.2125 340.78 26.7825L342.265 27.4875C342.105 27.9175 341.845 28.3075 341.485 28.6575C341.135 28.9975 340.72 29.2675 340.24 29.4675C339.76 29.6675 339.24 29.7675 338.68 29.7675Z" fill="black"/>
<path d="M347.837 29.7675C347.057 29.7675 346.342 29.5825 345.692 29.2125C345.052 28.8425 344.542 28.3375 344.162 27.6975C343.782 27.0575 343.592 26.3325 343.592 25.5225C343.592 24.7025 343.782 23.9775 344.162 23.3475C344.542 22.7075 345.052 22.2075 345.692 21.8475C346.332 21.4775 347.047 21.2925 347.837 21.2925C348.637 21.2925 349.352 21.4775 349.982 21.8475C350.622 22.2075 351.127 22.7075 351.497 23.3475C351.877 23.9775 352.067 24.7025 352.067 25.5225C352.067 26.3425 351.877 27.0725 351.497 27.7125C351.117 28.3525 350.607 28.8575 349.967 29.2275C349.327 29.5875 348.617 29.7675 347.837 29.7675ZM347.837 28.1925C348.317 28.1925 348.742 28.0775 349.112 27.8475C349.482 27.6175 349.772 27.3025 349.982 26.9025C350.202 26.4925 350.312 26.0325 350.312 25.5225C350.312 25.0125 350.202 24.5575 349.982 24.1575C349.772 23.7575 349.482 23.4425 349.112 23.2125C348.742 22.9825 348.317 22.8675 347.837 22.8675C347.367 22.8675 346.942 22.9825 346.562 23.2125C346.192 23.4425 345.897 23.7575 345.677 24.1575C345.467 24.5575 345.362 25.0125 345.362 25.5225C345.362 26.0325 345.467 26.4925 345.677 26.9025C345.897 27.3025 346.192 27.6175 346.562 27.8475C346.942 28.0775 347.367 28.1925 347.837 28.1925Z" fill="black"/>
<path d="M353.721 29.5875V18.2325H355.416V29.5875H353.721Z" fill="black"/>
<path d="M357.398 29.5875V18.2325H359.093V29.5875H357.398Z" fill="black"/>
<path d="M364.885 29.7675C364.075 29.7675 363.355 29.5825 362.725 29.2125C362.105 28.8325 361.62 28.3225 361.27 27.6825C360.92 27.0325 360.745 26.3075 360.745 25.5075C360.745 24.6875 360.92 23.9625 361.27 23.3325C361.63 22.7025 362.11 22.2075 362.71 21.8475C363.31 21.4775 363.99 21.2925 364.75 21.2925C365.36 21.2925 365.905 21.3975 366.385 21.6075C366.865 21.8175 367.27 22.1075 367.6 22.4775C367.93 22.8375 368.18 23.2525 368.35 23.7225C368.53 24.1925 368.62 24.6925 368.62 25.2225C368.62 25.3525 368.615 25.4875 368.605 25.6275C368.595 25.7675 368.575 25.8975 368.545 26.0175H362.08V24.6675H367.585L366.775 25.2825C366.875 24.7925 366.84 24.3575 366.67 23.9775C366.51 23.5875 366.26 23.2825 365.92 23.0625C365.59 22.8325 365.2 22.7175 364.75 22.7175C364.3 22.7175 363.9 22.8325 363.55 23.0625C363.2 23.2825 362.93 23.6025 362.74 24.0225C362.55 24.4325 362.475 24.9325 362.515 25.5225C362.465 26.0725 362.54 26.5525 362.74 26.9625C362.95 27.3725 363.24 27.6925 363.61 27.9225C363.99 28.1525 364.42 28.2675 364.9 28.2675C365.39 28.2675 365.805 28.1575 366.145 27.9375C366.495 27.7175 366.77 27.4325 366.97 27.0825L368.35 27.7575C368.19 28.1375 367.94 28.4825 367.6 28.7925C367.27 29.0925 366.87 29.3325 366.4 29.5125C365.94 29.6825 365.435 29.7675 364.885 29.7675Z" fill="black"/>
<path d="M374.129 29.7675C373.319 29.7675 372.599 29.5825 371.969 29.2125C371.349 28.8325 370.854 28.3225 370.484 27.6825C370.124 27.0425 369.944 26.3175 369.944 25.5075C369.944 24.7075 370.124 23.9875 370.484 23.3475C370.844 22.7075 371.339 22.2075 371.969 21.8475C372.599 21.4775 373.319 21.2925 374.129 21.2925C374.679 21.2925 375.194 21.3925 375.674 21.5925C376.154 21.7825 376.569 22.0475 376.919 22.3875C377.279 22.7275 377.544 23.1225 377.714 23.5725L376.229 24.2625C376.059 23.8425 375.784 23.5075 375.404 23.2575C375.034 22.9975 374.609 22.8675 374.129 22.8675C373.669 22.8675 373.254 22.9825 372.884 23.2125C372.524 23.4325 372.239 23.7475 372.029 24.1575C371.819 24.5575 371.714 25.0125 371.714 25.5225C371.714 26.0325 371.819 26.4925 372.029 26.9025C372.239 27.3025 372.524 27.6175 372.884 27.8475C373.254 28.0775 373.669 28.1925 374.129 28.1925C374.619 28.1925 375.044 28.0675 375.404 27.8175C375.774 27.5575 376.049 27.2125 376.229 26.7825L377.714 27.4875C377.554 27.9175 377.294 28.3075 376.934 28.6575C376.584 28.9975 376.169 29.2675 375.689 29.4675C375.209 29.6675 374.689 29.7675 374.129 29.7675Z" fill="black"/>
<path d="M382.881 29.6775C382.031 29.6775 381.371 29.4375 380.901 28.9575C380.431 28.4775 380.196 27.8025 380.196 26.9325V23.0025H378.771V21.4725H378.996C379.376 21.4725 379.671 21.3625 379.881 21.1425C380.091 20.9225 380.196 20.6225 380.196 20.2425V19.6125H381.891V21.4725H383.736V23.0025H381.891V26.8575C381.891 27.1375 381.936 27.3775 382.026 27.5775C382.116 27.7675 382.261 27.9175 382.461 28.0275C382.661 28.1275 382.921 28.1775 383.241 28.1775C383.321 28.1775 383.411 28.1725 383.511 28.1625C383.611 28.1525 383.706 28.1425 383.796 28.1325V29.5875C383.656 29.6075 383.501 29.6275 383.331 29.6475C383.161 29.6675 383.011 29.6775 382.881 29.6775Z" fill="black"/>
<path d="M385.45 29.5875V21.4725H387.145V29.5875H385.45ZM385.45 20.3625V18.4125H387.145V20.3625H385.45Z" fill="black"/>
<path d="M393.042 29.7675C392.262 29.7675 391.547 29.5825 390.897 29.2125C390.257 28.8425 389.747 28.3375 389.367 27.6975C388.987 27.0575 388.797 26.3325 388.797 25.5225C388.797 24.7025 388.987 23.9775 389.367 23.3475C389.747 22.7075 390.257 22.2075 390.897 21.8475C391.537 21.4775 392.252 21.2925 393.042 21.2925C393.842 21.2925 394.557 21.4775 395.187 21.8475C395.827 22.2075 396.332 22.7075 396.702 23.3475C397.082 23.9775 397.272 24.7025 397.272 25.5225C397.272 26.3425 397.082 27.0725 396.702 27.7125C396.322 28.3525 395.812 28.8575 395.172 29.2275C394.532 29.5875 393.822 29.7675 393.042 29.7675ZM393.042 28.1925C393.522 28.1925 393.947 28.0775 394.317 27.8475C394.687 27.6175 394.977 27.3025 395.187 26.9025C395.407 26.4925 395.517 26.0325 395.517 25.5225C395.517 25.0125 395.407 24.5575 395.187 24.1575C394.977 23.7575 394.687 23.4425 394.317 23.2125C393.947 22.9825 393.522 22.8675 393.042 22.8675C392.572 22.8675 392.147 22.9825 391.767 23.2125C391.397 23.4425 391.102 23.7575 390.882 24.1575C390.672 24.5575 390.567 25.0125 390.567 25.5225C390.567 26.0325 390.672 26.4925 390.882 26.9025C391.102 27.3025 391.397 27.6175 391.767 27.8475C392.147 28.0775 392.572 28.1925 393.042 28.1925Z" fill="black"/>
<path d="M398.927 29.5875V21.4725H400.547V23.0625L400.352 22.8525C400.552 22.3425 400.872 21.9575 401.312 21.6975C401.752 21.4275 402.262 21.2925 402.842 21.2925C403.442 21.2925 403.972 21.4225 404.432 21.6825C404.892 21.9425 405.252 22.3025 405.512 22.7625C405.772 23.2225 405.902 23.7525 405.902 24.3525V29.5875H404.222V24.8025C404.222 24.3925 404.147 24.0475 403.997 23.7675C403.847 23.4775 403.632 23.2575 403.352 23.1075C403.082 22.9475 402.772 22.8675 402.422 22.8675C402.072 22.8675 401.757 22.9475 401.477 23.1075C401.207 23.2575 400.997 23.4775 400.847 23.7675C400.697 24.0575 400.622 24.4025 400.622 24.8025V29.5875H398.927Z" fill="black"/>
<path d="M414.253 29.7675C413.473 29.7675 412.758 29.5825 412.108 29.2125C411.468 28.8425 410.958 28.3375 410.578 27.6975C410.198 27.0575 410.008 26.3325 410.008 25.5225C410.008 24.7025 410.198 23.9775 410.578 23.3475C410.958 22.7075 411.468 22.2075 412.108 21.8475C412.748 21.4775 413.463 21.2925 414.253 21.2925C415.053 21.2925 415.768 21.4775 416.398 21.8475C417.038 22.2075 417.543 22.7075 417.913 23.3475C418.293 23.9775 418.483 24.7025 418.483 25.5225C418.483 26.3425 418.293 27.0725 417.913 27.7125C417.533 28.3525 417.023 28.8575 416.383 29.2275C415.743 29.5875 415.033 29.7675 414.253 29.7675ZM414.253 28.1925C414.733 28.1925 415.158 28.0775 415.528 27.8475C415.898 27.6175 416.188 27.3025 416.398 26.9025C416.618 26.4925 416.728 26.0325 416.728 25.5225C416.728 25.0125 416.618 24.5575 416.398 24.1575C416.188 23.7575 415.898 23.4425 415.528 23.2125C415.158 22.9825 414.733 22.8675 414.253 22.8675C413.783 22.8675 413.358 22.9825 412.978 23.2125C412.608 23.4425 412.313 23.7575 412.093 24.1575C411.883 24.5575 411.778 25.0125 411.778 25.5225C411.778 26.0325 411.883 26.4925 412.093 26.9025C412.313 27.3025 412.608 27.6175 412.978 27.8475C413.358 28.0775 413.783 28.1925 414.253 28.1925Z" fill="black"/>
<path d="M420.833 29.5875V23.0025H419.333V21.4725H420.833V21.0525C420.833 20.4425 420.958 19.9325 421.208 19.5225C421.458 19.1025 421.803 18.7825 422.243 18.5625C422.693 18.3425 423.208 18.2325 423.788 18.2325C423.898 18.2325 424.023 18.2425 424.163 18.2625C424.303 18.2725 424.418 18.2875 424.508 18.3075V19.7775C424.428 19.7575 424.338 19.7475 424.238 19.7475C424.138 19.7375 424.058 19.7325 423.998 19.7325C423.548 19.7325 423.188 19.8375 422.918 20.0475C422.648 20.2475 422.513 20.5825 422.513 21.0525V21.4725H424.373V23.0025H422.513V29.5875H420.833Z" fill="black"/>
<path d="M430.54 29.5875L427.75 21.4725H429.55L431.68 27.9375H431.05L433.225 21.4725H434.77L436.93 27.9375H436.3L438.445 21.4725H440.245L437.44 29.5875H435.91L433.72 22.9725H434.275L432.085 29.5875H430.54Z" fill="black"/>
<path d="M445.071 29.7675C444.261 29.7675 443.541 29.5825 442.911 29.2125C442.291 28.8325 441.806 28.3225 441.456 27.6825C441.106 27.0325 440.931 26.3075 440.931 25.5075C440.931 24.6875 441.106 23.9625 441.456 23.3325C441.816 22.7025 442.296 22.2075 442.896 21.8475C443.496 21.4775 444.176 21.2925 444.936 21.2925C445.546 21.2925 446.091 21.3975 446.571 21.6075C447.051 21.8175 447.456 22.1075 447.786 22.4775C448.116 22.8375 448.366 23.2525 448.536 23.7225C448.716 24.1925 448.806 24.6925 448.806 25.2225C448.806 25.3525 448.801 25.4875 448.791 25.6275C448.781 25.7675 448.761 25.8975 448.731 26.0175H442.266V24.6675H447.771L446.961 25.2825C447.061 24.7925 447.026 24.3575 446.856 23.9775C446.696 23.5875 446.446 23.2825 446.106 23.0625C445.776 22.8325 445.386 22.7175 444.936 22.7175C444.486 22.7175 444.086 22.8325 443.736 23.0625C443.386 23.2825 443.116 23.6025 442.926 24.0225C442.736 24.4325 442.661 24.9325 442.701 25.5225C442.651 26.0725 442.726 26.5525 442.926 26.9625C443.136 27.3725 443.426 27.6925 443.796 27.9225C444.176 28.1525 444.606 28.2675 445.086 28.2675C445.576 28.2675 445.991 28.1575 446.331 27.9375C446.681 27.7175 446.956 27.4325 447.156 27.0825L448.536 27.7575C448.376 28.1375 448.126 28.4825 447.786 28.7925C447.456 29.0925 447.056 29.3325 446.586 29.5125C446.126 29.6825 445.621 29.7675 445.071 29.7675Z" fill="black"/>
<path d="M452.817 29.7675C452.267 29.7675 451.782 29.6725 451.362 29.4825C450.952 29.2825 450.632 29.0125 450.402 28.6725C450.172 28.3225 450.057 27.9125 450.057 27.4425C450.057 27.0025 450.152 26.6075 450.342 26.2575C450.542 25.9075 450.847 25.6125 451.257 25.3725C451.667 25.1325 452.182 24.9625 452.802 24.8625L455.622 24.3975V25.7325L453.132 26.1675C452.682 26.2475 452.352 26.3925 452.142 26.6025C451.932 26.8025 451.827 27.0625 451.827 27.3825C451.827 27.6925 451.942 27.9475 452.172 28.1475C452.412 28.3375 452.717 28.4325 453.087 28.4325C453.547 28.4325 453.947 28.3325 454.287 28.1325C454.637 27.9325 454.907 27.6675 455.097 27.3375C455.287 26.9975 455.382 26.6225 455.382 26.2125V24.1275C455.382 23.7275 455.232 23.4025 454.932 23.1525C454.642 22.8925 454.252 22.7625 453.762 22.7625C453.312 22.7625 452.917 22.8825 452.577 23.1225C452.247 23.3525 452.002 23.6525 451.842 24.0225L450.432 23.3175C450.582 22.9175 450.827 22.5675 451.167 22.2675C451.507 21.9575 451.902 21.7175 452.352 21.5475C452.812 21.3775 453.297 21.2925 453.807 21.2925C454.447 21.2925 455.012 21.4125 455.502 21.6525C456.002 21.8925 456.387 22.2275 456.657 22.6575C456.937 23.0775 457.077 23.5675 457.077 24.1275V29.5875H455.457V28.1175L455.802 28.1625C455.612 28.4925 455.367 28.7775 455.067 29.0175C454.777 29.2575 454.442 29.4425 454.062 29.5725C453.692 29.7025 453.277 29.7675 452.817 29.7675Z" fill="black"/>
<path d="M462.422 29.6775C461.572 29.6775 460.912 29.4375 460.442 28.9575C459.972 28.4775 459.737 27.8025 459.737 26.9325V23.0025H458.312V21.4725H458.537C458.917 21.4725 459.212 21.3625 459.422 21.1425C459.632 20.9225 459.737 20.6225 459.737 20.2425V19.6125H461.432V21.4725H463.277V23.0025H461.432V26.8575C461.432 27.1375 461.477 27.3775 461.567 27.5775C461.657 27.7675 461.802 27.9175 462.002 28.0275C462.202 28.1275 462.462 28.1775 462.782 28.1775C462.862 28.1775 462.952 28.1725 463.052 28.1625C463.152 28.1525 463.247 28.1425 463.337 28.1325V29.5875C463.197 29.6075 463.042 29.6275 462.872 29.6475C462.702 29.6675 462.552 29.6775 462.422 29.6775Z" fill="black"/>
<path d="M464.991 29.5875V18.2325H466.686V23.0625L466.416 22.8525C466.616 22.3425 466.936 21.9575 467.376 21.6975C467.816 21.4275 468.326 21.2925 468.906 21.2925C469.506 21.2925 470.036 21.4225 470.496 21.6825C470.956 21.9425 471.316 22.3025 471.576 22.7625C471.836 23.2225 471.966 23.7475 471.966 24.3375V29.5875H470.286V24.8025C470.286 24.3925 470.206 24.0475 470.046 23.7675C469.896 23.4775 469.686 23.2575 469.416 23.1075C469.146 22.9475 468.836 22.8675 468.486 22.8675C468.146 22.8675 467.836 22.9475 467.556 23.1075C467.286 23.2575 467.071 23.4775 466.911 23.7675C466.761 24.0575 466.686 24.4025 466.686 24.8025V29.5875H464.991Z" fill="black"/>
<path d="M477.59 29.7675C476.78 29.7675 476.06 29.5825 475.43 29.2125C474.81 28.8325 474.325 28.3225 473.975 27.6825C473.625 27.0325 473.45 26.3075 473.45 25.5075C473.45 24.6875 473.625 23.9625 473.975 23.3325C474.335 22.7025 474.815 22.2075 475.415 21.8475C476.015 21.4775 476.695 21.2925 477.455 21.2925C478.065 21.2925 478.61 21.3975 479.09 21.6075C479.57 21.8175 479.975 22.1075 480.305 22.4775C480.635 22.8375 480.885 23.2525 481.055 23.7225C481.235 24.1925 481.325 24.6925 481.325 25.2225C481.325 25.3525 481.32 25.4875 481.31 25.6275C481.3 25.7675 481.28 25.8975 481.25 26.0175H474.785V24.6675H480.29L479.48 25.2825C479.58 24.7925 479.545 24.3575 479.375 23.9775C479.215 23.5875 478.965 23.2825 478.625 23.0625C478.295 22.8325 477.905 22.7175 477.455 22.7175C477.005 22.7175 476.605 22.8325 476.255 23.0625C475.905 23.2825 475.635 23.6025 475.445 24.0225C475.255 24.4325 475.18 24.9325 475.22 25.5225C475.17 26.0725 475.245 26.5525 475.445 26.9625C475.655 27.3725 475.945 27.6925 476.315 27.9225C476.695 28.1525 477.125 28.2675 477.605 28.2675C478.095 28.2675 478.51 28.1575 478.85 27.9375C479.2 27.7175 479.475 27.4325 479.675 27.0825L481.055 27.7575C480.895 28.1375 480.645 28.4825 480.305 28.7925C479.975 29.0925 479.575 29.3325 479.105 29.5125C478.645 29.6825 478.14 29.7675 477.59 29.7675Z" fill="black"/>
<path d="M482.979 29.5875V21.4725H484.599V23.1075L484.449 22.8675C484.629 22.3375 484.919 21.9575 485.319 21.7275C485.719 21.4875 486.199 21.3675 486.759 21.3675H487.254V22.9125H486.549C485.989 22.9125 485.534 23.0875 485.184 23.4375C484.844 23.7775 484.674 24.2675 484.674 24.9075V29.5875H482.979Z" fill="black"/>
<path d="M494.036 29.7675C493.206 29.7675 492.476 29.5625 491.846 29.1525C491.226 28.7425 490.791 28.1925 490.541 27.5025L491.846 26.8875C492.066 27.3475 492.366 27.7125 492.746 27.9825C493.136 28.2525 493.566 28.3875 494.036 28.3875C494.436 28.3875 494.761 28.2975 495.011 28.1175C495.261 27.9375 495.386 27.6925 495.386 27.3825C495.386 27.1825 495.331 27.0225 495.221 26.9025C495.111 26.7725 494.971 26.6675 494.801 26.5875C494.641 26.5075 494.476 26.4475 494.306 26.4075L493.031 26.0475C492.331 25.8475 491.806 25.5475 491.456 25.1475C491.116 24.7375 490.946 24.2625 490.946 23.7225C490.946 23.2325 491.071 22.8075 491.321 22.4475C491.571 22.0775 491.916 21.7925 492.356 21.5925C492.796 21.3925 493.291 21.2925 493.841 21.2925C494.581 21.2925 495.241 21.4775 495.821 21.8475C496.401 22.2075 496.811 22.7125 497.051 23.3625L495.746 23.9775C495.586 23.5875 495.331 23.2775 494.981 23.0475C494.641 22.8175 494.256 22.7025 493.826 22.7025C493.456 22.7025 493.161 22.7925 492.941 22.9725C492.721 23.1425 492.611 23.3675 492.611 23.6475C492.611 23.8375 492.661 23.9975 492.761 24.1275C492.861 24.2475 492.991 24.3475 493.151 24.4275C493.311 24.4975 493.476 24.5575 493.646 24.6075L494.966 24.9975C495.636 25.1875 496.151 25.4875 496.511 25.8975C496.871 26.2975 497.051 26.7775 497.051 27.3375C497.051 27.8175 496.921 28.2425 496.661 28.6125C496.411 28.9725 496.061 29.2575 495.611 29.4675C495.161 29.6675 494.636 29.7675 494.036 29.7675Z" fill="black"/>
<path d="M502.222 29.6775C501.372 29.6775 500.712 29.4375 500.242 28.9575C499.772 28.4775 499.537 27.8025 499.537 26.9325V23.0025H498.112V21.4725H498.337C498.717 21.4725 499.012 21.3625 499.222 21.1425C499.432 20.9225 499.537 20.6225 499.537 20.2425V19.6125H501.232V21.4725H503.077V23.0025H501.232V26.8575C501.232 27.1375 501.277 27.3775 501.367 27.5775C501.457 27.7675 501.602 27.9175 501.802 28.0275C502.002 28.1275 502.262 28.1775 502.582 28.1775C502.662 28.1775 502.752 28.1725 502.852 28.1625C502.952 28.1525 503.047 28.1425 503.137 28.1325V29.5875C502.997 29.6075 502.842 29.6275 502.672 29.6475C502.502 29.6675 502.352 29.6775 502.222 29.6775Z" fill="black"/>
<path d="M508.559 29.7675C507.779 29.7675 507.064 29.5825 506.414 29.2125C505.774 28.8425 505.264 28.3375 504.884 27.6975C504.504 27.0575 504.314 26.3325 504.314 25.5225C504.314 24.7025 504.504 23.9775 504.884 23.3475C505.264 22.7075 505.774 22.2075 506.414 21.8475C507.054 21.4775 507.769 21.2925 508.559 21.2925C509.359 21.2925 510.074 21.4775 510.704 21.8475C511.344 22.2075 511.849 22.7075 512.219 23.3475C512.599 23.9775 512.789 24.7025 512.789 25.5225C512.789 26.3425 512.599 27.0725 512.219 27.7125C511.839 28.3525 511.329 28.8575 510.689 29.2275C510.049 29.5875 509.339 29.7675 508.559 29.7675ZM508.559 28.1925C509.039 28.1925 509.464 28.0775 509.834 27.8475C510.204 27.6175 510.494 27.3025 510.704 26.9025C510.924 26.4925 511.034 26.0325 511.034 25.5225C511.034 25.0125 510.924 24.5575 510.704 24.1575C510.494 23.7575 510.204 23.4425 509.834 23.2125C509.464 22.9825 509.039 22.8675 508.559 22.8675C508.089 22.8675 507.664 22.9825 507.284 23.2125C506.914 23.4425 506.619 23.7575 506.399 24.1575C506.189 24.5575 506.084 25.0125 506.084 25.5225C506.084 26.0325 506.189 26.4925 506.399 26.9025C506.619 27.3025 506.914 27.6175 507.284 27.8475C507.664 28.0775 508.089 28.1925 508.559 28.1925Z" fill="black"/>
<path d="M514.444 29.5875V21.4725H516.064V23.1075L515.914 22.8675C516.094 22.3375 516.384 21.9575 516.784 21.7275C517.184 21.4875 517.664 21.3675 518.224 21.3675H518.719V22.9125H518.014C517.454 22.9125 516.999 23.0875 516.649 23.4375C516.309 23.7775 516.139 24.2675 516.139 24.9075V29.5875H514.444Z" fill="black"/>
<path d="M519.879 29.5875V21.4725H521.574V29.5875H519.879ZM519.879 20.3625V18.4125H521.574V20.3625H519.879Z" fill="black"/>
<path d="M527.365 29.7675C526.555 29.7675 525.835 29.5825 525.205 29.2125C524.585 28.8325 524.1 28.3225 523.75 27.6825C523.4 27.0325 523.225 26.3075 523.225 25.5075C523.225 24.6875 523.4 23.9625 523.75 23.3325C524.11 22.7025 524.59 22.2075 525.19 21.8475C525.79 21.4775 526.47 21.2925 527.23 21.2925C527.84 21.2925 528.385 21.3975 528.865 21.6075C529.345 21.8175 529.75 22.1075 530.08 22.4775C530.41 22.8375 530.66 23.2525 530.83 23.7225C531.01 24.1925 531.1 24.6925 531.1 25.2225C531.1 25.3525 531.095 25.4875 531.085 25.6275C531.075 25.7675 531.055 25.8975 531.025 26.0175H524.56V24.6675H530.065L529.255 25.2825C529.355 24.7925 529.32 24.3575 529.15 23.9775C528.99 23.5875 528.74 23.2825 528.4 23.0625C528.07 22.8325 527.68 22.7175 527.23 22.7175C526.78 22.7175 526.38 22.8325 526.03 23.0625C525.68 23.2825 525.41 23.6025 525.22 24.0225C525.03 24.4325 524.955 24.9325 524.995 25.5225C524.945 26.0725 525.02 26.5525 525.22 26.9625C525.43 27.3725 525.72 27.6925 526.09 27.9225C526.47 28.1525 526.9 28.2675 527.38 28.2675C527.87 28.2675 528.285 28.1575 528.625 27.9375C528.975 27.7175 529.25 27.4325 529.45 27.0825L530.83 27.7575C530.67 28.1375 530.42 28.4825 530.08 28.7925C529.75 29.0925 529.35 29.3325 528.88 29.5125C528.42 29.6825 527.915 29.7675 527.365 29.7675Z" fill="black"/>
<path d="M535.755 29.7675C534.925 29.7675 534.195 29.5625 533.565 29.1525C532.945 28.7425 532.51 28.1925 532.26 27.5025L533.565 26.8875C533.785 27.3475 534.085 27.7125 534.465 27.9825C534.855 28.2525 535.285 28.3875 535.755 28.3875C536.155 28.3875 536.48 28.2975 536.73 28.1175C536.98 27.9375 537.105 27.6925 537.105 27.3825C537.105 27.1825 537.05 27.0225 536.94 26.9025C536.83 26.7725 536.69 26.6675 536.52 26.5875C536.36 26.5075 536.195 26.4475 536.025 26.4075L534.75 26.0475C534.05 25.8475 533.525 25.5475 533.175 25.1475C532.835 24.7375 532.665 24.2625 532.665 23.7225C532.665 23.2325 532.79 22.8075 533.04 22.4475C533.29 22.0775 533.635 21.7925 534.075 21.5925C534.515 21.3925 535.01 21.2925 535.56 21.2925C536.3 21.2925 536.96 21.4775 537.54 21.8475C538.12 22.2075 538.53 22.7125 538.77 23.3625L537.465 23.9775C537.305 23.5875 537.05 23.2775 536.7 23.0475C536.36 22.8175 535.975 22.7025 535.545 22.7025C535.175 22.7025 534.88 22.7925 534.66 22.9725C534.44 23.1425 534.33 23.3675 534.33 23.6475C534.33 23.8375 534.38 23.9975 534.48 24.1275C534.58 24.2475 534.71 24.3475 534.87 24.4275C535.03 24.4975 535.195 24.5575 535.365 24.6075L536.685 24.9975C537.355 25.1875 537.87 25.4875 538.23 25.8975C538.59 26.2975 538.77 26.7775 538.77 27.3375C538.77 27.8175 538.64 28.2425 538.38 28.6125C538.13 28.9725 537.78 29.2575 537.33 29.4675C536.88 29.6675 536.355 29.7675 535.755 29.7675Z" fill="black"/>
</svg>
